REM DIRINDEX 1\2,1\3
REM DIRNAME folder01,folder02,folder03
TITLE ""
FILE "DISC1Track18.mp3" MP3
  TRACK 01 AUDIO
    TITLE "0:"
    INDEX 01 00:00:00
  TRACK 02 AUDIO
    TITLE "3:cjc133_0784"
    INDEX 01 00:00:17
  TRACK 03 AUDIO
    TITLE "0:"
    INDEX 01 00:01:34
  TRACK 04 AUDIO
    TITLE "2:cjc133_0785"
    INDEX 01 00:02:00
  TRACK 05 AUDIO
    TITLE "2:cjc133_0786"
    INDEX 01 00:05:14
  TRACK 06 AUDIO
    TITLE "2:cjc133_0787"
    INDEX 01 00:09:06
  TRACK 07 AUDIO
    TITLE "0:"
    INDEX 01 00:12:07
  TRACK 08 AUDIO
    TITLE "2:cjc133_0788"
    INDEX 01 00:12:58
  TRACK 09 AUDIO
    TITLE "2:cjc133_0789"
    INDEX 01 00:15:38
  TRACK 10 AUDIO
    TITLE "2:cjc133_0790"
    INDEX 01 00:19:11
  TRACK 11 AUDIO
    TITLE "0:"
    INDEX 01 00:22:05
  TRACK 12 AUDIO
    TITLE "2:cjc133_0791"
    INDEX 01 00:22:52
  TRACK 13 AUDIO
    TITLE "2:cjc133_0792"
    INDEX 01 00:25:07
  TRACK 14 AUDIO
    TITLE "2:cjc133_0793"
    INDEX 01 00:28:60
  TRACK 15 AUDIO
    TITLE "0:"
    INDEX 01 00:31:49
  TRACK 16 AUDIO
    TITLE "2:cjc133_0794"
    INDEX 01 00:32:27
  TRACK 17 AUDIO
    TITLE "2:cjc133_0795"
    INDEX 01 00:33:44
  TRACK 18 AUDIO
    TITLE "2:cjc133_0796"
    INDEX 01 00:36:62
  TRACK 19 AUDIO
    TITLE "0:"
    INDEX 01 00:39:17
  TRACK 20 AUDIO
    TITLE "2:cjc133_0797"
    INDEX 01 00:39:66
  TRACK 21 AUDIO
    TITLE "2:cjc133_0798"
    INDEX 01 00:42:16
  TRACK 22 AUDIO
    TITLE "2:cjc133_0799"
    INDEX 01 00:45:41
  TRACK 23 AUDIO
    TITLE "0:"
    INDEX 01 00:47:74
  TRACK 24 AUDIO
    TITLE "2:cjc133_0800"
    INDEX 01 00:48:48
  TRACK 25 AUDIO
    TITLE "2:cjc133_0801"
    INDEX 01 00:51:22
  TRACK 26 AUDIO
    TITLE "2:cjc133_0802"
    INDEX 01 00:55:16
  TRACK 27 AUDIO
    TITLE "0:"
    INDEX 01 00:58:22
  TRACK 28 AUDIO
    TITLE "2:cjc133_0803"
    INDEX 01 00:58:73
  TRACK 29 AUDIO
    TITLE "2:cjc133_0804"
    INDEX 01 01:01:05
  TRACK 30 AUDIO
    TITLE "2:cjc133_0805"
    INDEX 01 01:05:09
  TRACK 31 AUDIO
    TITLE "0:"
    INDEX 01 01:08:17
  TRACK 32 AUDIO
    TITLE "2:cjc133_0806"
    INDEX 01 01:08:68
  TRACK 33 AUDIO
    TITLE "2:cjc133_0807"
    INDEX 01 01:11:51
  TRACK 34 AUDIO
    TITLE "2:cjc133_0808"
    INDEX 01 01:15:17
  TRACK 35 AUDIO
    TITLE "0:"
    INDEX 01 01:17:59
  TRACK 36 AUDIO
    TITLE "2:cjc133_0809"
    INDEX 01 01:18:37
  TRACK 37 AUDIO
    TITLE "2:cjc133_0810"
    INDEX 01 01:20:14
  TRACK 38 AUDIO
    TITLE "2:cjc133_0811"
    INDEX 01 01:24:34
  TRACK 39 AUDIO
    TITLE "0:"
    INDEX 01 01:27:55
  TRACK 40 AUDIO
    TITLE "2:cjc133_0812"
    INDEX 01 01:28:33
  TRACK 41 AUDIO
    TITLE "2:cjc133_0813"
    INDEX 01 01:31:47
  TRACK 42 AUDIO
    TITLE "2:cjc133_0814"
    INDEX 01 01:35:33
  TRACK 43 AUDIO
    TITLE "0:"
    INDEX 01 01:38:26
  TRACK 44 AUDIO
    TITLE "2:cjc133_0815"
    INDEX 01 01:39:04
  TRACK 45 AUDIO
    TITLE "2:cjc133_0816"
    INDEX 01 01:40:31
  TRACK 46 AUDIO
    TITLE "2:cjc133_0817"
    INDEX 01 01:44:28
  TRACK 47 AUDIO
    TITLE "0:"
    INDEX 01 01:47:37
  TRACK 48 AUDIO
    TITLE "2:cjc133_0818"
    INDEX 01 01:48:14
  TRACK 49 AUDIO
    TITLE "2:cjc133_0819"
    INDEX 01 01:51:01
  TRACK 50 AUDIO
    TITLE "2:cjc133_0820"
    INDEX 01 01:55:62
  TRACK 51 AUDIO
    TITLE "0:"
    INDEX 01 01:59:50
  TRACK 52 AUDIO
    TITLE "2:cjc133_0821"
    INDEX 01 02:00:27
  TRACK 53 AUDIO
    TITLE "2:cjc133_0822"
    INDEX 01 02:02:07
  TRACK 54 AUDIO
    TITLE "2:cjc133_0823"
    INDEX 01 02:06:34
  TRACK 55 AUDIO
    TITLE "0:"
    INDEX 01 02:09:73
  TRACK 56 AUDIO
    TITLE "2:cjc133_0824"
    INDEX 01 02:10:49
  TRACK 57 AUDIO
    TITLE "2:cjc133_0825"
    INDEX 01 02:12:29
  TRACK 58 AUDIO
    TITLE "2:cjc133_0826"
    INDEX 01 02:16:05
  TRACK 59 AUDIO
    TITLE "0:"
    INDEX 01 02:18:65
  TRACK 60 AUDIO
    TITLE "2:cjc133_0827"
    INDEX 01 02:19:40
  TRACK 61 AUDIO
    TITLE "2:cjc133_0828"
    INDEX 01 02:20:58
  TRACK 62 AUDIO
    TITLE "2:cjc133_0829"
    INDEX 01 02:24:10
  TRACK 63 AUDIO
    TITLE "0:"
    INDEX 01 02:26:44
